<svg id="Layer_1" data-name="Layer 1" xmlns="http://www.w3.org/2000/svg" viewBox="0 0 155.18 115.82"><title>Artboard 1</title><path id="LATINMODERNNORMAL-1D707" d="M10.59,21.83a7.85,7.85,0,0,1-.42,1.38,1.16,1.16,0,0,1-1,.77,1.24,1.24,0,0,1-1.25-1A2.38,2.38,0,0,1,6,24a2.2,2.2,0,0,1-1.35-.43c-.53,2.15-.71,2.87-.77,3a.62.62,0,0,1-.49.29A.37.37,0,0,1,3,26.46a1.13,1.13,0,0,1,0-.22l2-8.07a.59.59,0,0,1,.56-.5A.37.37,0,0,1,6,18c0,.07-.14.6-.21.89l-.59,2.34a4.89,4.89,0,0,0-.2,1.18c0,.75.33,1.21,1,1.21A2.32,2.32,0,0,0,7.9,22.33l.36-1.42.65-2.61a.55.55,0,0,1,.54-.49.37.37,0,0,1,.4.38c0,.08-.14.61-.21.93s-.2.74-.24.95L9,21.58A9.56,9.56,0,0,0,8.75,23c0,.28,0,.64.42.64.57,0,.82-.82,1.06-1.73,0-.2.06-.25.2-.25S10.59,21.69,10.59,21.83Z"/><path id="LATINMODERNMAIN-302" d="M8.78,16.38l-.17.28a25,25,0,0,1-2.37-1.18,25,25,0,0,1-2.37,1.18l-.17-.28a14.51,14.51,0,0,1,2.54-1.77A14.51,14.51,0,0,1,8.78,16.38Z"/><path id="LATINMODERNNORMAL-1D6FE" d="M11,54.93a3,3,0,0,1-.26.53A38.67,38.67,0,0,0,8.86,60a3.76,3.76,0,0,0-.11.54A18.28,18.28,0,0,1,8.24,63c-.15.53-.26.84-.45.84s-.18-.1-.18-.25a21.37,21.37,0,0,1,.72-3,3.48,3.48,0,0,0,.17-1.37c0-1.1-.15-3.54-2.26-3.54A2.32,2.32,0,0,0,4,57.26L4,57.33c-.14,0-.26,0-.26-.14,0-.43,1-2.55,2.72-2.55a2,2,0,0,1,1.85,1.53A7.8,7.8,0,0,1,8.85,59a36.44,36.44,0,0,1,1.84-4.12.16.16,0,0,1,.17-.1S11,54.79,11,54.93Z"/><path id="LATINMODERNMAIN-302-2" data-name="LATINMODERNMAIN-302" d="M9.42,53.35l-.17.28a25,25,0,0,1-2.37-1.18,25,25,0,0,1-2.37,1.18l-.17-.28a14.51,14.51,0,0,1,2.54-1.77A14.51,14.51,0,0,1,9.42,53.35Z"/><path id="LATINMODERNNORMAL-1D6FC" d="M10.49,96.21a8.14,8.14,0,0,1-1.6,3.27c-.14.17-.14.2-.14.49s0,1.42.43,1.42a.91.91,0,0,0,.78-.68c0-.1.08-.14.18-.14s.17,0,.17.14a1.29,1.29,0,0,1-1.17,1,1.33,1.33,0,0,1-1.27-1.17,4.7,4.7,0,0,1-2.94,1.17,2.21,2.21,0,0,1-2.26-2.36,4.13,4.13,0,0,1,3.75-4c1,0,2.33.68,2.33,2.87v.86a8.23,8.23,0,0,0,1.37-2.76c.07-.25.07-.29.21-.29A.16.16,0,0,1,10.49,96.21Zm-2.68,4c0-.24,0-1,0-1.56,0-1.09,0-2.91-1.38-2.91A2.36,2.36,0,0,0,4.52,97a7.22,7.22,0,0,0-.81,2.9c0,.89.42,1.52,1.25,1.52A4.33,4.33,0,0,0,7.82,100.16Z"/><path id="LATINMODERNMAIN-302-3" data-name="LATINMODERNMAIN-302" d="M8.53,94.1l-.17.28A25,25,0,0,1,6,93.2a25,25,0,0,1-2.37,1.18l-.17-.28A14.51,14.51,0,0,1,6,92.33,14.51,14.51,0,0,1,8.53,94.1Z"/><path id="LATINMODERNMAIN-3D" d="M24.95,19a.28.28,0,0,1-.28.28H15.94a.28.28,0,1,1,0-.56h8.72A.28.28,0,0,1,24.95,19Zm0,2.7a.28.28,0,0,1-.28.28H15.94a.28.28,0,0,1,0-.56h8.72A.28.28,0,0,1,24.95,21.69Z"/><rect x="31.26" y="19.92" width="63.66" height="0.84"/><path id="LATINMODERNMAIN-6E" d="M39.55,14.4l-1.56,0-1.57,0V14c.93,0,1.09,0,1.09-.63V10.1c0-.79-.15-1.55-1-1.55a2,2,0,0,0-1.88,2.23v2.56c0,.63.15.63,1.09.63v.43l-1.56,0-1.57,0V14c.93,0,1.09,0,1.09-.63V9.61c0-.68-.11-.78-1.09-.78V8.4l2-.15V9.71a2.2,2.2,0,0,1,2.06-1.46A1.86,1.86,0,0,1,38,8.76c.43.5.43.93.43,2.13v2.66c0,.42.36.42,1.09.42Z"/><path id="LATINMODERNMAIN-6C" d="M43.4,14.4l-1.55,0-1.55,0V14c.93,0,1.09,0,1.09-.63V6.1c0-.68-.11-.78-1.09-.78V4.89l2-.15v8.61c0,.63.15.63,1.09.63Z"/><path id="LATINMODERNMAIN-5E" d="M41.85,3.42l-.17.31L37.89,2,34.12,3.73,34,3.42l3.94-2.23Z"/><path id="LATINMODERNMAIN-2B" d="M56.87,10.92a.28.28,0,0,1-.28.28H52.51v4.08a.28.28,0,0,1-.56,0V11.2H47.87a.28.28,0,0,1,0-.56H52V6.56a.28.28,0,0,1,.56,0v4.08h4.08A.28.28,0,0,1,56.87,10.92Z"/><path id="LATINMODERNMAIN-72" d="M65.82,9.09a.59.59,0,0,1-.6.61.58.58,0,0,1-.6-.6.6.6,0,0,1,.32-.54.35.35,0,0,0-.15,0c-1.06,0-1.64,1.24-1.64,2.62v2.15c0,.5,0,.65,1.06.65h.29v.43c-.56,0-1.21,0-1.77,0l-1.59,0V14c.93,0,1.09,0,1.09-.63V9.61c0-.68-.11-.78-1.09-.78V8.4l1.94-.15V9.78a2,2,0,0,1,1.71-1.53A1,1,0,0,1,65.82,9.09Z"/><path id="LATINMODERNMAIN-6C-2" data-name="LATINMODERNMAIN-6C" d="M69.76,14.4l-1.55,0-1.55,0V14c.93,0,1.09,0,1.09-.63V6.1c0-.68-.11-.78-1.09-.78V4.89l2-.15v8.61c0,.63.15.63,1.09.63Z"/><path id="LATINMODERNMAIN-5E-2" data-name="LATINMODERNMAIN-5E" d="M69.36,3.42l-.17.31L65.4,2,61.62,3.73l-.15-.31,3.94-2.23Z"/><path id="LATINMODERNMAIN-2212" d="M83.24,10.92a.28.28,0,0,1-.28.28H74.24a.28.28,0,1,1,0-.56H83A.28.28,0,0,1,83.24,10.92Z"/><path id="LATINMODERNMAIN-31" d="M93,14.4c-.49,0-1.7,0-2.26,0s-1.77,0-2.26,0V14h.45c1.25,0,1.3-.17,1.3-.67V6.08a4.17,4.17,0,0,1-1.83.36V6a3.44,3.44,0,0,0,2.54-.89c.32,0,.32,0,.32.36V13.3c0,.52,0,.67,1.3.67H93Z"/><path id="LATINMODERNNORMAL-1D45B" d="M54.87,31.39c0,.11-.52,2.15-1.83,2.15a1.11,1.11,0,0,1-1.14-1.14,1.59,1.59,0,0,1,.14-.64,13.28,13.28,0,0,0,.91-3.25c0-.46-.13-1-.75-1a2.77,2.77,0,0,0-2.27,1.7l-.18.7c-.07.32-.15.63-.24.93l-.31,1.25c-.08.35-.25,1-.26,1a.57.57,0,0,1-.52.39.37.37,0,0,1-.4-.38c0-.07.08-.39.13-.6l.81-3.22a4.49,4.49,0,0,0,.22-1.17c0-.46-.15-.64-.43-.64-.5,0-.78.67-1,1.66-.08.31-.1.32-.24.32s-.17,0-.17-.14A7,7,0,0,1,47.73,28a1.22,1.22,0,0,1,1-.79,1.26,1.26,0,0,1,1.28,1.21,2.69,2.69,0,0,1,2.17-1.21,1.42,1.42,0,0,1,1.6,1.49A12.54,12.54,0,0,1,53,31.78a2.66,2.66,0,0,0-.25,1c0,.32.1.46.33.46.68,0,1.14-.78,1.42-1.73.07-.21.07-.25.21-.25S54.87,31.25,54.87,31.39Z"/><path id="LATINMODERNMAIN-2212-2" data-name="LATINMODERNMAIN-2212" d="M68.42,29.9a.28.28,0,0,1-.28.28H59.42a.28.28,0,0,1,0-.56h8.72A.28.28,0,0,1,68.42,29.9Z"/><path id="LATINMODERNMAIN-31-2" data-name="LATINMODERNMAIN-31" d="M78.14,33.38c-.49,0-1.7,0-2.26,0s-1.77,0-2.26,0V33h.45c1.25,0,1.3-.17,1.3-.67V25.06a4.17,4.17,0,0,1-1.83.36V25a3.44,3.44,0,0,0,2.54-.89c.32,0,.32,0,.32.36v7.82c0,.52,0,.67,1.3.67h.45Z"/><path id="LATINMODERNMAIN-2B-2" data-name="LATINMODERNMAIN-2B" d="M109.77,20.34a.28.28,0,0,1-.28.28h-4.08V24.7a.28.28,0,0,1-.56,0V20.62h-4.08a.28.28,0,1,1,0-.56h4.08V16a.28.28,0,0,1,.56,0v4.08h4.08A.28.28,0,0,1,109.77,20.34Z"/><path id="LATINMODERNMAIN-6E-2" data-name="LATINMODERNMAIN-6E" d="M121.1,23.82l-1.56,0-1.57,0v-.43c.93,0,1.09,0,1.09-.63V19.52c0-.79-.15-1.55-1-1.55a2,2,0,0,0-1.88,2.23v2.56c0,.63.15.63,1.09.63v.43l-1.56,0-1.57,0v-.43c.93,0,1.09,0,1.09-.63V19c0-.68-.11-.78-1.09-.78v-.43l2-.15v1.46a2.2,2.2,0,0,1,2.06-1.46,1.86,1.86,0,0,1,1.46.52c.43.5.43.93.43,2.13V23c0,.42.36.42,1.09.42Z"/><path id="LATINMODERNMAIN-6C-3" data-name="LATINMODERNMAIN-6C" d="M124.95,23.82l-1.55,0-1.55,0v-.43c.93,0,1.09,0,1.09-.63V15.52c0-.68-.11-.78-1.09-.78v-.43l2-.15v8.61c0,.63.15.63,1.09.63Z"/><path id="LATINMODERNMAIN-5E-3" data-name="LATINMODERNMAIN-5E" d="M123.4,12.84l-.17.31-3.79-1.71-3.78,1.71-.15-.31,3.94-2.23Z"/><path id="LATINMODERNMAIN-2B-3" data-name="LATINMODERNMAIN-2B" d="M138.44,20.34a.28.28,0,0,1-.28.28h-4.08V24.7a.28.28,0,1,1-.56,0V20.62h-4.08a.28.28,0,0,1,0-.56h4.08V16a.28.28,0,1,1,.56,0v4.08h4.08A.28.28,0,0,1,138.44,20.34Z"/><path id="LATINMODERNMAIN-72-2" data-name="LATINMODERNMAIN-72" d="M147.38,18.51a.59.59,0,0,1-.6.61.58.58,0,0,1-.6-.6.6.6,0,0,1,.32-.54.35.35,0,0,0-.15,0c-1.06,0-1.64,1.24-1.64,2.62v2.15c0,.5,0,.65,1.06.65h.29v.43c-.56,0-1.21,0-1.77,0l-1.59,0v-.43c.93,0,1.09,0,1.09-.63V19c0-.68-.11-.78-1.09-.78v-.43l1.94-.15V19.2a2,2,0,0,1,1.71-1.53A1,1,0,0,1,147.38,18.51Z"/><path id="LATINMODERNMAIN-6C-4" data-name="LATINMODERNMAIN-6C" d="M151.33,23.82l-1.55,0-1.55,0v-.43c.93,0,1.09,0,1.09-.63V15.52c0-.68-.11-.78-1.09-.78v-.43l2-.15v8.61c0,.63.15.63,1.09.63Z"/><path id="LATINMODERNMAIN-5E-4" data-name="LATINMODERNMAIN-5E" d="M150.92,12.84l-.17.31L147,11.44l-3.78,1.71-.15-.31L147,10.61Z"/><path id="LATINMODERNMAIN-3D-2" data-name="LATINMODERNMAIN-3D" d="M24.95,56a.28.28,0,0,1-.28.28H15.94a.28.28,0,0,1,0-.56h8.72A.28.28,0,0,1,24.95,56Zm0,2.7a.28.28,0,0,1-.28.28H15.94a.28.28,0,0,1,0-.56h8.72A.28.28,0,0,1,24.95,58.66Z"/><rect x="31.26" y="56.89" width="119.89" height="0.84"/><path id="LATINMODERNNORMAL-1D45B-2" data-name="LATINMODERNNORMAL-1D45B" d="M40.05,48.94c0,.11-.52,2.15-1.83,2.15a1.11,1.11,0,0,1-1.14-1.14,1.59,1.59,0,0,1,.14-.64,13.28,13.28,0,0,0,.91-3.25c0-.46-.13-1-.75-1a2.77,2.77,0,0,0-2.27,1.7l-.18.7c-.07.32-.15.63-.24.93l-.31,1.25c-.08.35-.25,1-.26,1a.57.57,0,0,1-.52.39.37.37,0,0,1-.4-.38c0-.07.08-.39.13-.6l.81-3.22a4.49,4.49,0,0,0,.22-1.17c0-.46-.15-.64-.43-.64-.5,0-.78.67-1,1.66-.08.31-.1.32-.24.32s-.17,0-.17-.14a7,7,0,0,1,.42-1.35,1.22,1.22,0,0,1,1-.79A1.26,1.26,0,0,1,35.24,46a2.69,2.69,0,0,1,2.17-1.21A1.42,1.42,0,0,1,39,46.26a12.54,12.54,0,0,1-.85,3.07,2.66,2.66,0,0,0-.25,1c0,.32.1.46.33.46.68,0,1.14-.78,1.42-1.73.07-.21.07-.25.21-.25S40.05,48.8,40.05,48.94Z"/><path id="LATINMODERNMAIN-28" d="M45.08,54.25a.15.15,0,0,1-.14.14l-.08,0a8.89,8.89,0,0,1-3-6.33V46.86a8.89,8.89,0,0,1,3-6.33l.08,0a.15.15,0,0,1,.14.14.17.17,0,0,1-.06.11c-1.45,1.09-2.41,3.87-2.41,6.1V48c0,2.23,1,5,2.41,6.1A.17.17,0,0,1,45.08,54.25Z"/><path id="LATINMODERNMAIN-6E-3" data-name="LATINMODERNMAIN-6E" d="M53.33,50.93l-1.56,0-1.57,0V50.5c.93,0,1.09,0,1.09-.63V46.62c0-.79-.15-1.55-1-1.55a2,2,0,0,0-1.88,2.23v2.56c0,.63.15.63,1.09.63v.43l-1.56,0-1.57,0V50.5c.93,0,1.09,0,1.09-.63V46.13c0-.68-.11-.78-1.09-.78v-.43l2-.15v1.46a2.2,2.2,0,0,1,2.06-1.46,1.86,1.86,0,0,1,1.46.52c.43.5.43.93.43,2.13v2.66c0,.42.36.42,1.09.42Z"/><path id="LATINMODERNMAIN-6C-5" data-name="LATINMODERNMAIN-6C" d="M57.18,50.93l-1.55,0-1.55,0V50.5c.93,0,1.09,0,1.09-.63V42.62c0-.68-.11-.78-1.09-.78v-.43l2-.15v8.61c0,.63.15.63,1.09.63Z"/><path id="LATINMODERNMAIN-5E-5" data-name="LATINMODERNMAIN-5E" d="M55.63,39.95l-.17.31-3.79-1.71L47.9,40.25l-.15-.31,3.94-2.23Z"/><path id="LATINMODERNMAIN-2B-4" data-name="LATINMODERNMAIN-2B" d="M70.65,47.44a.28.28,0,0,1-.28.28H66.29v4.08a.28.28,0,1,1-.56,0V47.72H61.65a.28.28,0,1,1,0-.56h4.08V43.08a.28.28,0,1,1,.56,0v4.08h4.08A.28.28,0,0,1,70.65,47.44Z"/><path id="LATINMODERNMAIN-70" d="M81.79,47.92a3.14,3.14,0,0,1-3.11,3.16,1.89,1.89,0,0,1-1.71-1v2.47c0,.63.15.63,1.09.63v.43l-1.57,0-1.56,0V53.2c.93,0,1.09,0,1.09-.63V46.05c0-.61-.1-.7-1.09-.7v-.43l2-.15v.92a2.51,2.51,0,0,1,2-.92A3,3,0,0,1,81.79,47.92Zm-1.16,0c0-1.57-.85-2.8-1.87-2.8A2.09,2.09,0,0,0,77,46.23v3.11a.73.73,0,0,0,.2.59,1.74,1.74,0,0,0,1.46.85C79.66,50.78,80.63,49.6,80.63,47.92Z"/><path id="LATINMODERNMAIN-6C-6" data-name="LATINMODERNMAIN-6C" d="M85.83,50.93l-1.55,0-1.55,0V50.5c.93,0,1.09,0,1.09-.63V42.62c0-.68-.11-.78-1.09-.78v-.43l2-.15v8.61c0,.63.15.63,1.09.63Z"/><path id="LATINMODERNMAIN-5E-6" data-name="LATINMODERNMAIN-5E" d="M84.28,39.95l-.17.31-3.79-1.71-3.78,1.71-.15-.31,3.94-2.23Z"/><path id="LATINMODERNNORMAL-1D45B-3" data-name="LATINMODERNNORMAL-1D45B" d="M94.11,48.94c0,.11-.52,2.15-1.83,2.15a1.11,1.11,0,0,1-1.14-1.14,1.59,1.59,0,0,1,.14-.64,13.28,13.28,0,0,0,.91-3.25c0-.46-.13-1-.75-1a2.77,2.77,0,0,0-2.27,1.7l-.18.7c-.07.32-.15.63-.24.93l-.31,1.25c-.08.35-.25,1-.26,1a.57.57,0,0,1-.52.39.37.37,0,0,1-.4-.38c0-.07.08-.39.13-.6l.81-3.22a4.49,4.49,0,0,0,.22-1.17c0-.46-.15-.64-.43-.64-.5,0-.78.67-1,1.66-.08.31-.1.32-.24.32s-.17,0-.17-.14A7,7,0,0,1,87,45.56a1.22,1.22,0,0,1,1-.79A1.26,1.26,0,0,1,89.3,46a2.69,2.69,0,0,1,2.17-1.21,1.42,1.42,0,0,1,1.6,1.49,12.54,12.54,0,0,1-.85,3.07,2.66,2.66,0,0,0-.25,1c0,.32.1.46.33.46.68,0,1.14-.78,1.42-1.73.07-.21.07-.25.21-.25S94.11,48.8,94.11,48.94Z"/><path id="LATINMODERNMAIN-2B-5" data-name="LATINMODERNMAIN-2B" d="M107.67,47.44a.28.28,0,0,1-.28.28H103.3v4.08a.28.28,0,1,1-.56,0V47.72H98.66a.28.28,0,1,1,0-.56h4.08V43.08a.28.28,0,1,1,.56,0v4.08h4.08A.28.28,0,0,1,107.67,47.44Z"/><path id="LATINMODERNMAIN-72-3" data-name="LATINMODERNMAIN-72" d="M116.61,45.62a.59.59,0,0,1-.6.61.58.58,0,0,1-.6-.6.6.6,0,0,1,.32-.54.35.35,0,0,0-.15,0c-1.06,0-1.64,1.24-1.64,2.62v2.15c0,.5,0,.65,1.06.65h.29v.43c-.56,0-1.21,0-1.77,0l-1.59,0V50.5c.93,0,1.09,0,1.09-.63V46.13c0-.68-.11-.78-1.09-.78v-.43l1.94-.15V46.3a2,2,0,0,1,1.71-1.53A1,1,0,0,1,116.61,45.62Z"/><path id="LATINMODERNMAIN-6C-7" data-name="LATINMODERNMAIN-6C" d="M120.56,50.93l-1.55,0-1.55,0V50.5c.93,0,1.09,0,1.09-.63V42.62c0-.68-.11-.78-1.09-.78v-.43l2-.15v8.61c0,.63.15.63,1.09.63Z"/><path id="LATINMODERNMAIN-5E-7" data-name="LATINMODERNMAIN-5E" d="M120.15,39.95l-.17.31-3.79-1.71-3.78,1.71-.15-.31,3.94-2.23Z"/><path id="LATINMODERNMAIN-2212-3" data-name="LATINMODERNMAIN-2212" d="M134,47.44a.28.28,0,0,1-.28.28H125a.28.28,0,0,1,0-.56h8.72A.28.28,0,0,1,134,47.44Z"/><path id="LATINMODERNMAIN-31-3" data-name="LATINMODERNMAIN-31" d="M143.76,50.93c-.49,0-1.7,0-2.26,0s-1.77,0-2.26,0V50.5h.45c1.25,0,1.3-.17,1.3-.67V42.61a4.17,4.17,0,0,1-1.83.36v-.43a3.44,3.44,0,0,0,2.54-.89c.32,0,.32,0,.32.36v7.82c0,.52,0,.67,1.3.67h.45Z"/><path id="LATINMODERNMAIN-29" d="M148.9,48a8.89,8.89,0,0,1-3,6.33l-.08,0a.15.15,0,0,1-.14-.14.17.17,0,0,1,.06-.11c1.45-1.09,2.41-3.87,2.41-6.1V46.86c0-2.23-1-5-2.41-6.1a.17.17,0,0,1-.06-.11.15.15,0,0,1,.14-.14l.08,0a8.89,8.89,0,0,1,3,6.33Z"/><path id="LATINMODERNMAIN-28-2" data-name="LATINMODERNMAIN-28" d="M71.06,74.15a.15.15,0,0,1-.14.14l-.08,0a8.89,8.89,0,0,1-3-6.33V66.76a8.89,8.89,0,0,1,3-6.33l.08,0a.15.15,0,0,1,.14.14.17.17,0,0,1-.06.11c-1.45,1.09-2.41,3.87-2.41,6.1v1.17c0,2.23,1,5,2.41,6.1A.17.17,0,0,1,71.06,74.15Z"/><path id="LATINMODERNNORMAL-1D45B-4" data-name="LATINMODERNNORMAL-1D45B" d="M79.81,68.84c0,.11-.52,2.15-1.83,2.15a1.11,1.11,0,0,1-1.14-1.14A1.59,1.59,0,0,1,77,69.2,13.28,13.28,0,0,0,77.89,66c0-.46-.13-1-.75-1a2.77,2.77,0,0,0-2.27,1.7l-.18.7c-.07.32-.15.63-.24.93l-.31,1.25c-.08.35-.25,1-.26,1a.57.57,0,0,1-.52.39.37.37,0,0,1-.4-.38c0-.07.08-.39.13-.6l.81-3.22a4.49,4.49,0,0,0,.22-1.17c0-.46-.15-.64-.43-.64-.5,0-.78.67-1,1.66-.08.31-.1.32-.24.32s-.17,0-.17-.14a7,7,0,0,1,.42-1.35,1.22,1.22,0,0,1,1-.79A1.26,1.26,0,0,1,75,65.88a2.69,2.69,0,0,1,2.17-1.21,1.42,1.42,0,0,1,1.6,1.49,12.54,12.54,0,0,1-.85,3.07,2.66,2.66,0,0,0-.25,1c0,.32.1.46.33.46.68,0,1.14-.78,1.42-1.73.07-.21.07-.25.21-.25S79.81,68.7,79.81,68.84Z"/><path id="LATINMODERNMAIN-2212-4" data-name="LATINMODERNMAIN-2212" d="M93.37,67.34a.28.28,0,0,1-.28.28H84.37a.28.28,0,1,1,0-.56h8.72A.28.28,0,0,1,93.37,67.34Z"/><path id="LATINMODERNMAIN-31-4" data-name="LATINMODERNMAIN-31" d="M103.08,70.83c-.49,0-1.7,0-2.26,0s-1.77,0-2.26,0V70.4H99c1.25,0,1.3-.17,1.3-.67V62.51a4.17,4.17,0,0,1-1.83.36v-.43a3.44,3.44,0,0,0,2.54-.89c.32,0,.32,0,.32.36v7.82c0,.52,0,.67,1.3.67h.45Z"/><path id="LATINMODERNMAIN-29-2" data-name="LATINMODERNMAIN-29" d="M108.22,67.93a8.89,8.89,0,0,1-3,6.33l-.08,0a.15.15,0,0,1-.14-.14.17.17,0,0,1,.06-.11c1.45-1.09,2.41-3.87,2.41-6.1V66.76c0-2.23-1-5-2.41-6.1a.17.17,0,0,1-.06-.11.15.15,0,0,1,.14-.14l.08,0a8.89,8.89,0,0,1,3,6.33Z"/><path id="LATINMODERNMAIN-32" d="M114.06,65.1l-.28,1.71h-3.66c0-.24,0-.26.11-.36l1.89-2.11a3.53,3.53,0,0,0,1-2.18c0-.81-.42-1.61-1.32-1.61a1.42,1.42,0,0,0-1.33,1h.13a.5.5,0,0,1,.52.51.52.52,0,1,1-1,0A1.82,1.82,0,0,1,112,60.25a1.94,1.94,0,0,1,2.09,1.91c0,1-.59,1.52-2.13,2.88l-1,1h1.77a3.21,3.21,0,0,0,.94-.08,3.24,3.24,0,0,0,.22-.88Z"/><path id="LATINMODERNMAIN-3D-3" data-name="LATINMODERNMAIN-3D" d="M24.95,96.71a.28.28,0,0,1-.28.28H15.94a.28.28,0,1,1,0-.56h8.72A.28.28,0,0,1,24.95,96.71Zm0,2.7a.28.28,0,0,1-.28.28H15.94a.28.28,0,1,1,0-.56h8.72A.28.28,0,0,1,24.95,99.41Z"/><rect x="31.26" y="97.64" width="119.89" height="0.84"/><path id="LATINMODERNNORMAL-1D45B-5" data-name="LATINMODERNNORMAL-1D45B" d="M40.05,89.68c0,.11-.52,2.15-1.83,2.15a1.11,1.11,0,0,1-1.14-1.14,1.59,1.59,0,0,1,.14-.64,13.28,13.28,0,0,0,.91-3.25c0-.46-.13-1-.75-1a2.77,2.77,0,0,0-2.27,1.7l-.18.7c-.07.32-.15.63-.24.93l-.31,1.25c-.08.35-.25,1-.26,1a.57.57,0,0,1-.52.39.37.37,0,0,1-.4-.38c0-.07.08-.39.13-.6l.81-3.22a4.49,4.49,0,0,0,.22-1.17c0-.46-.15-.64-.43-.64-.5,0-.78.67-1,1.66-.08.31-.1.32-.24.32s-.17,0-.17-.14a7,7,0,0,1,.42-1.35,1.22,1.22,0,0,1,1-.79,1.26,1.26,0,0,1,1.28,1.21,2.69,2.69,0,0,1,2.17-1.21A1.42,1.42,0,0,1,39,87a12.54,12.54,0,0,1-.85,3.07,2.66,2.66,0,0,0-.25,1c0,.32.1.46.33.46.68,0,1.14-.78,1.42-1.73.07-.21.07-.25.21-.25S40.05,89.54,40.05,89.68Z"/><path id="LATINMODERNMAIN-28-3" data-name="LATINMODERNMAIN-28" d="M45.08,95a.15.15,0,0,1-.14.14l-.08,0a8.89,8.89,0,0,1-3-6.33V87.61a8.89,8.89,0,0,1,3-6.33l.08,0a.15.15,0,0,1,.14.14.17.17,0,0,1-.06.11c-1.45,1.09-2.41,3.87-2.41,6.1v1.17c0,2.23,1,5,2.41,6.1A.17.17,0,0,1,45.08,95Z"/><path id="LATINMODERNMAIN-6E-4" data-name="LATINMODERNMAIN-6E" d="M53.33,91.68l-1.56,0-1.57,0v-.43c.93,0,1.09,0,1.09-.63V87.37c0-.79-.15-1.55-1-1.55a2,2,0,0,0-1.88,2.23v2.56c0,.63.15.63,1.09.63v.43l-1.56,0-1.57,0v-.43c.93,0,1.09,0,1.09-.63V86.88c0-.68-.11-.78-1.09-.78v-.43l2-.15V87a2.2,2.2,0,0,1,2.06-1.46,1.86,1.86,0,0,1,1.46.52c.43.5.43.93.43,2.13v2.66c0,.42.36.42,1.09.42Z"/><path id="LATINMODERNMAIN-6C-8" data-name="LATINMODERNMAIN-6C" d="M57.18,91.68l-1.55,0-1.55,0v-.43c.93,0,1.09,0,1.09-.63V83.37c0-.68-.11-.78-1.09-.78v-.43l2-.15v8.61c0,.63.15.63,1.09.63Z"/><path id="LATINMODERNMAIN-5E-8" data-name="LATINMODERNMAIN-5E" d="M55.63,80.69l-.17.31-3.79-1.71L47.9,81l-.15-.31,3.94-2.23Z"/><path id="LATINMODERNNORMAL-1D45B-6" data-name="LATINMODERNNORMAL-1D45B" d="M65.46,89.68c0,.11-.52,2.15-1.83,2.15a1.11,1.11,0,0,1-1.14-1.14,1.59,1.59,0,0,1,.14-.64,13.28,13.28,0,0,0,.91-3.25c0-.46-.13-1-.75-1a2.77,2.77,0,0,0-2.27,1.7l-.18.7c-.07.32-.15.63-.24.93l-.31,1.25c-.08.35-.25,1-.26,1a.57.57,0,0,1-.52.39.37.37,0,0,1-.4-.38c0-.07.08-.39.13-.6l.81-3.22a4.49,4.49,0,0,0,.22-1.17c0-.46-.15-.64-.43-.64-.5,0-.78.67-1,1.66-.08.31-.1.32-.24.32s-.17,0-.17-.14a7,7,0,0,1,.42-1.35,1.22,1.22,0,0,1,1-.79,1.26,1.26,0,0,1,1.28,1.21,2.69,2.69,0,0,1,2.17-1.21A1.42,1.42,0,0,1,64.42,87a12.54,12.54,0,0,1-.85,3.07,2.66,2.66,0,0,0-.25,1c0,.32.1.46.33.46.68,0,1.14-.78,1.42-1.73.07-.21.07-.25.21-.25S65.46,89.54,65.46,89.68Z"/><path id="LATINMODERNMAIN-2B-6" data-name="LATINMODERNMAIN-2B" d="M79,88.19a.28.28,0,0,1-.28.28H74.65v4.08a.28.28,0,1,1-.56,0V88.47H70a.28.28,0,0,1,0-.56H74.1V83.83a.28.28,0,1,1,.56,0v4.08h4.08A.28.28,0,0,1,79,88.19Z"/><path id="LATINMODERNMAIN-70-2" data-name="LATINMODERNMAIN-70" d="M90.15,88.67A3.14,3.14,0,0,1,87,91.83a1.89,1.89,0,0,1-1.71-1v2.47c0,.63.15.63,1.09.63v.43l-1.57,0-1.56,0v-.43c.93,0,1.09,0,1.09-.63V86.8c0-.61-.1-.7-1.09-.7v-.43l2-.15v.92a2.51,2.51,0,0,1,2-.92A3,3,0,0,1,90.15,88.67Zm-1.16,0c0-1.57-.85-2.8-1.87-2.8A2.09,2.09,0,0,0,85.33,87v3.11a.73.73,0,0,0,.2.59,1.74,1.74,0,0,0,1.46.85C88,91.52,89,90.35,89,88.67Z"/><path id="LATINMODERNMAIN-6C-9" data-name="LATINMODERNMAIN-6C" d="M94.19,91.68l-1.55,0-1.55,0v-.43c.93,0,1.09,0,1.09-.63V83.37c0-.68-.11-.78-1.09-.78v-.43l2-.15v8.61c0,.63.15.63,1.09.63Z"/><path id="LATINMODERNMAIN-5E-9" data-name="LATINMODERNMAIN-5E" d="M92.64,80.69l-.17.31-3.79-1.71L84.91,81l-.15-.31,3.94-2.23Z"/><path id="LATINMODERNMAIN-2B-7" data-name="LATINMODERNMAIN-2B" d="M107.67,88.19a.28.28,0,0,1-.28.28H103.3v4.08a.28.28,0,1,1-.56,0V88.47H98.66a.28.28,0,1,1,0-.56h4.08V83.83a.28.28,0,1,1,.56,0v4.08h4.08A.28.28,0,0,1,107.67,88.19Z"/><path id="LATINMODERNMAIN-72-4" data-name="LATINMODERNMAIN-72" d="M116.61,86.37a.59.59,0,0,1-.6.61.58.58,0,0,1-.6-.6.6.6,0,0,1,.32-.54.35.35,0,0,0-.15,0c-1.06,0-1.64,1.24-1.64,2.62v2.15c0,.5,0,.65,1.06.65h.29v.43c-.56,0-1.21,0-1.77,0l-1.59,0v-.43c.93,0,1.09,0,1.09-.63V86.88c0-.68-.11-.78-1.09-.78v-.43l1.94-.15V87a2,2,0,0,1,1.71-1.53A1,1,0,0,1,116.61,86.37Z"/><path id="LATINMODERNMAIN-6C-10" data-name="LATINMODERNMAIN-6C" d="M120.56,91.68l-1.55,0-1.55,0v-.43c.93,0,1.09,0,1.09-.63V83.37c0-.68-.11-.78-1.09-.78v-.43l2-.15v8.61c0,.63.15.63,1.09.63Z"/><path id="LATINMODERNMAIN-5E-10" data-name="LATINMODERNMAIN-5E" d="M120.15,80.69,120,81l-3.79-1.71L112.42,81l-.15-.31,3.94-2.23Z"/><path id="LATINMODERNMAIN-2212-5" data-name="LATINMODERNMAIN-2212" d="M134,88.19a.28.28,0,0,1-.28.28H125a.28.28,0,0,1,0-.56h8.72A.28.28,0,0,1,134,88.19Z"/><path id="LATINMODERNMAIN-31-5" data-name="LATINMODERNMAIN-31" d="M143.76,91.68c-.49,0-1.7,0-2.26,0s-1.77,0-2.26,0v-.43h.45c1.25,0,1.3-.17,1.3-.67V83.36a4.17,4.17,0,0,1-1.83.36v-.43a3.44,3.44,0,0,0,2.54-.89c.32,0,.32,0,.32.36v7.82c0,.52,0,.67,1.3.67h.45Z"/><path id="LATINMODERNMAIN-29-3" data-name="LATINMODERNMAIN-29" d="M148.9,88.78a8.89,8.89,0,0,1-3,6.33l-.08,0a.15.15,0,0,1-.14-.14.17.17,0,0,1,.06-.11c1.45-1.09,2.41-3.87,2.41-6.1V87.61c0-2.23-1-5-2.41-6.1a.17.17,0,0,1-.06-.11.15.15,0,0,1,.14-.14l.08,0a8.89,8.89,0,0,1,3,6.33Z"/><path id="LATINMODERNMAIN-28-4" data-name="LATINMODERNMAIN-28" d="M71.06,114.89a.15.15,0,0,1-.14.14l-.08,0a8.89,8.89,0,0,1-3-6.33v-1.17a8.89,8.89,0,0,1,3-6.33l.08,0a.15.15,0,0,1,.14.14.17.17,0,0,1-.06.11c-1.45,1.09-2.41,3.87-2.41,6.1v1.17c0,2.23,1,5,2.41,6.1A.17.17,0,0,1,71.06,114.89Z"/><path id="LATINMODERNNORMAL-1D45B-7" data-name="LATINMODERNNORMAL-1D45B" d="M79.81,109.58c0,.11-.52,2.15-1.83,2.15a1.11,1.11,0,0,1-1.14-1.14,1.59,1.59,0,0,1,.14-.64,13.28,13.28,0,0,0,.91-3.25c0-.46-.13-1-.75-1a2.77,2.77,0,0,0-2.27,1.7l-.18.7c-.07.32-.15.63-.24.93l-.31,1.25c-.08.35-.25,1-.26,1a.57.57,0,0,1-.52.39.37.37,0,0,1-.4-.38c0-.07.08-.39.13-.6l.81-3.22a4.49,4.49,0,0,0,.22-1.17c0-.46-.15-.64-.43-.64-.5,0-.78.67-1,1.66-.08.31-.1.32-.24.32s-.17,0-.17-.14a7,7,0,0,1,.42-1.35,1.22,1.22,0,0,1,1-.79A1.26,1.26,0,0,1,75,106.63a2.69,2.69,0,0,1,2.17-1.21,1.42,1.42,0,0,1,1.6,1.49,12.54,12.54,0,0,1-.85,3.07,2.66,2.66,0,0,0-.25,1c0,.32.1.46.33.46.68,0,1.14-.78,1.42-1.73.07-.21.07-.25.21-.25S79.81,109.44,79.81,109.58Z"/><path id="LATINMODERNMAIN-2212-6" data-name="LATINMODERNMAIN-2212" d="M93.37,108.09a.28.28,0,0,1-.28.28H84.37a.28.28,0,1,1,0-.56h8.72A.28.28,0,0,1,93.37,108.09Z"/><path id="LATINMODERNMAIN-31-6" data-name="LATINMODERNMAIN-31" d="M103.08,111.58c-.49,0-1.7,0-2.26,0s-1.77,0-2.26,0v-.43H99c1.25,0,1.3-.17,1.3-.67v-7.22a4.17,4.17,0,0,1-1.83.36v-.43a3.44,3.44,0,0,0,2.54-.89c.32,0,.32,0,.32.36v7.82c0,.52,0,.67,1.3.67h.45Z"/><path id="LATINMODERNMAIN-29-4" data-name="LATINMODERNMAIN-29" d="M108.22,108.68a8.89,8.89,0,0,1-3,6.33l-.08,0a.15.15,0,0,1-.14-.14.17.17,0,0,1,.06-.11c1.45-1.09,2.41-3.87,2.41-6.1v-1.17c0-2.23-1-5-2.41-6.1a.17.17,0,0,1-.06-.11.15.15,0,0,1,.14-.14l.08,0a8.89,8.89,0,0,1,3,6.33Z"/><path id="LATINMODERNMAIN-32-2" data-name="LATINMODERNMAIN-32" d="M114.06,105.85l-.28,1.71h-3.66c0-.24,0-.26.11-.36l1.89-2.11a3.53,3.53,0,0,0,1-2.18c0-.81-.42-1.61-1.32-1.61a1.42,1.42,0,0,0-1.33,1h.13a.5.5,0,0,1,.52.51.52.52,0,1,1-1,0A1.82,1.82,0,0,1,112,101a1.94,1.94,0,0,1,2.09,1.91c0,1-.59,1.52-2.13,2.88l-1,1h1.77a3.21,3.21,0,0,0,.94-.08,3.24,3.24,0,0,0,.22-.88Z"/></svg>