<svg id="Layer_1" data-name="Layer 1" xmlns="http://www.w3.org/2000/svg" xmlns:xlink="http://www.w3.org/1999/xlink" viewBox="0 0 152 207">
  <defs>
    <style>
      .cls-1 {
        fill: none;
      }

      .cls-2 {
        clip-path: url(#clip-path);
      }

      .cls-3 {
        fill: #2a2a2a;
      }

      .cls-4 {
        clip-path: url(#clip-path-2);
      }

      .cls-5 {
        fill: #262626;
      }
    </style>
    <clipPath id="clip-path" transform="translate(-0.257 4.3)">
      <rect id="_Clipping_Path_" data-name="&lt;Clipping Path&gt;" class="cls-1" x="92.257" y="76.7" width="60" height="83"/>
    </clipPath>
    <clipPath id="clip-path-2" transform="translate(-0.257 4.3)">
      <rect id="_Clipping_Path_2" data-name="&lt;Clipping Path&gt;" class="cls-1" x="0.257" y="-4.3" width="108" height="207"/>
    </clipPath>
  </defs>
  <title>icon-grayscale</title>
  <g id="_Clip_Group_" data-name="&lt;Clip Group&gt;">
    <g class="cls-2">
      <path id="_Compound_Path_" data-name="&lt;Compound Path&gt;" class="cls-3" d="M132.711,136.775c-.193-1.64-.193-7.235-.193-10.8,0-7.524,0-20.161-9.55-20.161-3.376,0-8.585,1.833-13.119,8.875-3.087,4.92-5.595,15.338-5.595,20.064,0,6.174,2.894,10.515,8.682,10.515C116.795,145.264,124.222,144.2,132.711,136.775Zm18.6-27.4a56.377,56.377,0,0,1-11.093,22.669c-.965,1.158-.965,1.35-.965,3.376,0,2.315,0,9.839,2.99,9.839,0,0,3.666,0,5.4-4.727.289-.675.579-.965,1.254-.965.579,0,1.158.289,1.158.965,0,1.543-2.99,6.849-8.1,6.849-4.341,0-7.524-2.99-8.778-8.1-7.331,5.884-14.277,8.1-20.354,8.1-9.839,0-15.627-7.331-15.627-16.3,0-13.6,12.733-27.4,25.949-27.4,7.138,0,16.109,4.727,16.109,19.871v5.981a56.973,56.973,0,0,0,9.453-19.1c.482-1.736.482-2.026,1.447-2.026A1.1,1.1,0,0,1,151.315,109.379Z" transform="translate(-0.257 4.3)"/>
      <path id="_Path_" data-name="&lt;Path&gt;" class="cls-3" d="M136.659,94.621,135.5,96.55a173.288,173.288,0,0,1-16.4-8.2,173.284,173.284,0,0,1-16.4,8.2l-1.158-1.929A100.452,100.452,0,0,1,119.1,82.37,100.453,100.453,0,0,1,136.659,94.621Z" transform="translate(-0.257 4.3)"/>
    </g>
  </g>
  <g id="_Clip_Group_2" data-name="&lt;Clip Group&gt;">
    <g class="cls-4">
      <path id="_Path_2" data-name="&lt;Path&gt;" class="cls-5" d="M111.374,57.739c0,.82-2.461,5.333-3.9,7.794-8.2,16.2-21.331,46.765-27.895,67.071a55.378,55.378,0,0,0-1.641,8c-.821,6.358-2.872,18.05-7.589,35.279-2.256,7.794-3.9,12.307-6.563,12.307-1.641,0-2.667-1.436-2.667-3.692,0-5.333,6.153-29.125,10.666-44.1,1.436-4.1,2.461-7.589,2.461-20.1,0-16.2-2.256-52.1-33.228-52.1-2.256,0-24.613.205-32.612,23.793l-.82,1.026c-2.051,0-3.9,0-3.9-2.051,0-6.358,14.358-37.535,40-37.535,14.153,0,22.357,10.05,27.279,22.562a114.869,114.869,0,0,1,8.41,41.842c8.2-20.716,16.409-41.227,27.074-60.712a2.351,2.351,0,0,1,2.461-1.436S111.374,55.688,111.374,57.739Z" transform="translate(-0.257 4.3)"/>
      <path id="_Path_3" data-name="&lt;Path&gt;" class="cls-5" d="M87.787,34.561l-2.461,4.1A368.425,368.425,0,0,1,50.457,21.229,368.431,368.431,0,0,1,15.588,38.664l-2.461-4.1A213.578,213.578,0,0,1,50.457,8.513,213.581,213.581,0,0,1,87.787,34.561Z" transform="translate(-0.257 4.3)"/>
    </g>
  </g>
</svg>
